<?xml version="1.0" encoding="utf-8"?>
<!-- Generator: Adobe Illustrator 21.0.0, SVG Export Plug-In . SVG Version: 6.00 Build 0)  -->
<svg version="1.1" id="Layer_1" xmlns="http://www.w3.org/2000/svg" xmlns:xlink="http://www.w3.org/1999/xlink" x="0px" y="0px"
	 viewBox="0 0 100 100" style="enable-background:new 0 0 100 100;" xml:space="preserve">
<style type="text/css">
	.st0{fill:#E4E4E4;stroke:#EEEEEE;stroke-width:2;stroke-linejoin:round;stroke-miterlimit:10;}
	.st1{fill:#E4E4E4;stroke:#EEEEEE;stroke-width:2;stroke-miterlimit:10;}
</style>
<rect x="59.2" y="51.2" transform="matrix(0.7071 -0.7071 0.7071 0.7071 -22.7149 60.4955)" class="st0" width="5" height="13"/>
<path class="st1" d="M30.9,26.9c-7.6,7.6-7.6,19.8,0,27.4s19.8,7.6,27.4,0s7.6-19.8,0-27.4S38.5,19.4,30.9,26.9z M52.7,48.7
	c-4.5,4.5-11.7,4.5-16.2,0S32,37,36.5,32.5s11.7-4.5,16.2,0S57.2,44.2,52.7,48.7z"/>
<path class="st0" d="M81.2,69.4l-1.3-1.3L68.1,56.3l-7.8,7.8l11.7,11.7l1.3,1.3c2.1,2.1,5.5,2.1,7.7,0l0.1-0.1
	C83.3,74.9,83.3,71.5,81.2,69.4z"/>
</svg>
